<svg width="52" height="52" viewBox="0 0 52 52" fill="none" xmlns="http://www.w3.org/2000/svg">
<path fill-rule="evenodd" clip-rule="evenodd" d="M3.65625 3.65533C0 7.31061 0 13.1937 0 24.96V27.04C0 38.8063 0 44.6893 3.65625 48.3447C7.31055 52 13.1934 52 24.9609 52H27.0391C38.8066 52 44.6895 52 48.3457 48.3447C52 44.6893 52 38.8063 52 27.04V24.96C52 13.1937 52 7.31061 48.3457 3.65533C44.6895 0 38.8066 0 27.0391 0H24.9609C13.1934 0 7.31055 0 3.65625 3.65533ZM8.77539 15.8168C9.05664 29.3368 15.8164 37.4618 27.668 37.4618H28.3398V29.7267C32.6953 30.1601 35.9883 33.3451 37.3105 37.4618H43.4629C41.7734 31.3085 37.332 27.9068 34.5586 26.6068C37.332 25.0034 41.2324 21.1035 42.1641 15.8168H36.5742C35.3594 20.1068 31.7637 24.0068 28.3398 24.3751V15.8168H22.75V30.8101C19.2832 29.9434 14.9062 25.7401 14.7129 15.8168H8.77539Z" fill="#0077FF"/>
</svg>
