<svg xmlns="http://www.w3.org/2000/svg" fill="none" viewBox="0 0 48 48">
  <path fill="#0265DA" fill-rule="evenodd" d="M47.999 23.943c0 13.223-10.72 23.942-23.942 23.942-13.223 0-23.942-10.72-23.942-23.942C.115 10.72 10.835 0 24.057 0 37.28.001 48 10.721 48 23.943Zm-21.797-6.85a5468.857 5468.857 0 0 1-16.123 6.642c-2.837 1.107-1.176 2.145-1.176 2.145s2.422.83 4.498 1.453c2.076.623 3.183-.07 3.183-.07s4.843-3.182 9.756-6.573c3.46-2.352 2.63-.415 1.8.415-1.8 1.8-4.775 4.637-7.266 6.92-1.107.969-.554 1.8-.07 2.214 1.409 1.192 4.724 3.358 6.232 4.343.418.274.697.456.758.501.346.277 2.283 1.522 3.46 1.246 1.176-.277 1.314-1.869 1.314-1.869s.9-5.674 1.73-10.864c.154-1.018.307-2.015.45-2.945.374-2.418.676-4.381.726-5.081.208-2.353-2.283-1.384-2.283-1.384s-5.398 2.214-6.989 2.906Z" clip-rule="evenodd"/>
</svg>