<svg xmlns="http://www.w3.org/2000/svg" fill="none" viewBox="0 0 49 48">
  <path fill="#0EA514" fill-rule="evenodd" d="M24.636.065C11.516.065.879 10.405.879 23.16c0 4.363 1.246 8.443 3.408 11.924L0 47.474l13.152-4.094a24.211 24.211 0 0 0 11.484 2.872c13.122 0 23.76-10.34 23.76-23.095 0-12.755-10.638-23.092-23.76-23.092Zm11.139 28.341c-.597-.316-3.522-1.851-4.07-2.068-.548-.216-.95-.33-1.376.246-.426.575-1.642 1.86-2.008 2.239-.37.38-.725.417-1.322.098-.594-.317-2.523-1.01-4.764-3.102-1.743-1.628-2.885-3.603-3.216-4.205-.331-.604 0-.91.312-1.192.282-.256.632-.667.95-1 .315-.332.426-.574.643-.96.217-.385.13-.733-.011-1.033-.141-.301-1.243-3.245-1.701-4.445-.459-1.197-.972-1.02-1.327-1.034-.353-.01-.757-.076-1.162-.09-.404-.015-1.066.109-1.644.679-.578.57-2.2 1.938-2.312 4.84-.111 2.898 1.954 5.781 2.241 6.185.288.403 3.943 6.691 10.016 9.276 6.075 2.585 6.105 1.796 7.22 1.738 1.116-.058 3.642-1.295 4.201-2.653.56-1.359.602-2.538.461-2.788-.14-.25-.54-.414-1.134-.73h.003Z" clip-rule="evenodd"/>
</svg>